HIERARCHY
ROOT Hips
{
  OFFSET -125.086 92.215 135.881
  CHANNELS 6 Xposition Yposition Zposition Zrotation Xrotation Yrotation
  JOINT LeftUpLeg
  {
    OFFSET 8.64259 1.95398 -2.38835
    CHANNELS 3 Zrotation Xrotation Yrotation
    JOINT LeftLeg
    {
      OFFSET 43.7702 0 0
      CHANNELS 3 Zrotation Xrotation Yrotation
      JOINT LeftFoot
      {
        OFFSET 40.6238 0 0
        CHANNELS 3 Zrotation Xrotation Yrotation
        JOINT LeftToeBase
        {
          OFFSET 12.7242 0 0
          CHANNELS 3 Zrotation Xrotation Yrotation
          End Site
          {
            OFFSET 0 0 0
          }
        }
      }
    }
  }
  JOINT RightUpLeg
  {
    OFFSET -8.2249 1.95398 -2.59336
    CHANNELS 3 Zrotation Xrotation Yrotation
    JOINT RightLeg
    {
      OFFSET 43.5653 0 0
      CHANNELS 3 Zrotation Xrotation Yrotation
      JOINT RightFoot
      {
        OFFSET 40.6238 0 0
        CHANNELS 3 Zrotation Xrotation Yrotation
        JOINT RightToeBase
        {
          OFFSET 12.7242 0 0
          CHANNELS 3 Zrotation Xrotation Yrotation
          End Site
          {
            OFFSET 0 0 0
          }
        }
      }
    }
  }
  JOINT Spine
  {
    OFFSET 0.165834 0.87714 6.61349
    CHANNELS 3 Zrotation Xrotation Yrotation
    JOINT Spine1
    {
      OFFSET 7.38963 1.71661e-005 0
      CHANNELS 3 Zrotation Xrotation Yrotation
      JOINT Spine2
      {
        OFFSET 11.9445 1.14441e-005 0
        CHANNELS 3 Zrotation Xrotation Yrotation
        JOINT Spine3
        {
          OFFSET 14.7254 4.19617e-005 0
          CHANNELS 3 Zrotation Xrotation Yrotation
          JOINT Spine4
          {
            OFFSET 10.9679 0 0
            CHANNELS 3 Zrotation Xrotation Yrotation
            JOINT RightShoulder
            {
              OFFSET 2.46616 -1.6653 3.69651
              CHANNELS 3 Zrotation Xrotation Yrotation
              JOINT RightArm
              {
                OFFSET 13.0012 0 0
                CHANNELS 3 Zrotation Xrotation Yrotation
                JOINT RightForeArm
                {
                  OFFSET 28.7848 1.52588e-005 0
                  CHANNELS 3 Zrotation Xrotation Yrotation
                  JOINT RightHand
                  {
                    OFFSET 26.5688 1.52588e-005 0
                    CHANNELS 3 Zrotation Xrotation Yrotation
                    End Site
                    {
                      OFFSET 0 0 0
                    }
                  }
                }
              }
            }
            JOINT LeftShoulder
            {
              OFFSET 2.38034 -1.29275 -3.7523
              CHANNELS 3 Zrotation Xrotation Yrotation
              JOINT LeftArm
              {
                OFFSET 16.3182 6.10352e-005 0
                CHANNELS 3 Zrotation Xrotation Yrotation
                JOINT LeftForeArm
                {
                  OFFSET 27.0901 0 0
                  CHANNELS 3 Zrotation Xrotation Yrotation
                  JOINT LeftHand
                  {
                    OFFSET 24.5451 1.52588e-005 0
                    CHANNELS 3 Zrotation Xrotation Yrotation
                    End Site
                    {
                      OFFSET 0 0 0
                    }
                  }
                }
              }
            }
            JOINT Neck
            {
              OFFSET 5.0226 -0.0266342 0
              CHANNELS 3 Zrotation Xrotation Yrotation
              JOINT Head
              {
                OFFSET 6.69363 2.86102e-005 0
                CHANNELS 3 Zrotation Xrotation Yrotation
                End Site
                {
                  OFFSET 0 0 0
                }
              }
            }
          }
        }
      }
    }
  }
}
MOTION
Frames:	13
Frame Time:	0.0416667
-7.83533 81.8076 -8.92371 23.5523 -77.1299 24.5492 -176.397 53.4196 88.2478 -67.1917 5.62808 1.06826 75.3668 15.0636 4.67873 44.296 -1.23202 4.45665 163.509 53.6489 88.6358 -65.4204 -18.6778 5.18335 76.4143 -14.4517 -5.96845 36.2681 -1.22196 1.57085 0.390513 13.7791 -90.7852 -0.683673 0.493363 -1.49665 -12.3554 0.427026 -1.51692 -34.886 0.920323 -1.27925 -14.8734 0.920328 -1.27926 98.2811 -19.7118 -91.71 14.6074 5.17064 -79.281 8.27146 25.2592 -10.661 -10.4701 0.188604 -7.59671 -87.8822 -27.6596 76.4546 -20.4231 1.35944 -82.1765 1.22343 -19.3974 -5.36893 -4.15981 0.0519312 -13.4867 -3.33105 -5.6976 20.702 22.3036 -11.9559 -17.1305 
-7.87273 83.549 -8.33865 21.6574 -77.2501 22.9779 -176.565 50.9664 89.1168 -63.3809 5.85861 0.984826 74.6847 14.1792 3.99719 43.0827 -1.17313 4.5828 165.083 50.9336 88.4786 -61.1358 -17.774 5.34801 75.0636 -13.6179 -6.11955 36.5357 -1.24202 1.17156 0.360224 13.2039 -90.7293 0.466488 0.446793 -1.39991 -11.2051 0.38475 -1.41822 -33.7362 0.846835 -1.20097 -13.7236 0.846841 -1.20096 98.1783 -22.9494 -91.3906 15.5863 1.76222 -75.2231 10.1082 21.3735 -14.9759 -10.8432 0.174931 -7.34183 -87.6071 -30.4871 77.8078 -22.2111 3.82423 -77.0496 -0.772055 -15.09 -8.41454 -5.08347 0.137254 -14.0356 -0.954789 -5.21675 22.2224 22.1168 -12.3069 -18.2036 
-7.76752 85.3178 -7.65966 25.1023 -77.1666 26.9023 -177.343 48.1287 89.7709 -59.2646 6.38292 1.17539 73.6497 13.2905 3.73138 41.976 -1.12438 4.07477 166.501 47.7108 87.975 -56.9921 -15.6106 5.44081 74.021 -12.3021 -4.61465 36.9127 -1.24858 -0.748341 0.283948 12.6214 -90.7512 1.63049 0.279265 -1.4563 -10.0412 0.214889 -1.4672 -32.5711 0.703991 -1.3051 -12.5585 0.703989 -1.3051 98.5305 -26.8108 -90.0495 16.6706 -1.57281 -70.7999 10.3953 15.0504 -18.7632 -9.26816 0.197882 -8.10903 -87.017 -32.5579 79.4735 -23.9842 5.8962 -71.4755 -2.39816 -10.2353 -12.0609 -5.07004 0.134638 -13.9185 3.24701 -4.2361 21.2375 19.5187 -11.4235 -17.7245 
-7.73817 87.0901 -6.81271 31.0149 -78.054 33.2287 -178.404 43.855 90.4554 -54.996 6.94875 1.76811 72.5964 12.4259 3.66972 41.2175 -1.08515 3.80604 167.624 43.2177 87.5821 -52.6599 -14.0344 5.51685 72.5144 -11.0912 -3.99378 37.0842 -1.27845 -0.636407 0.179221 12.1324 -90.7632 2.60697 0.0593854 -1.48964 -9.06483 -0.00622983 -1.49082 -31.5937 0.504288 -1.40297 -11.5811 0.504289 -1.40297 98.7581 -31.2011 -89.0474 16.6671 -4.24394 -65.112 10.808 10.3137 -23.7974 -8.10751 0.174108 -8.17047 -86.2346 -34.7458 81.4182 -24.3175 7.97295 -65.5922 -5.82368 -9.90987 -16.1118 -4.2537 0.0632141 -13.7131 6.46583 -3.5403 18.7012 17.0884 -9.99608 -15.4926 
-7.71882 88.7218 -5.80368 34.7741 -79.2588 37.2531 -178.779 39.5942 90.8802 -50.9731 6.48089 2.23877 71.6781 11.4045 2.71182 40.5596 -1.05456 4.11032 169.061 38.6843 87.5644 -48.2079 -13.2796 5.12762 70.8432 -10.2387 -4.48845 37.4032 -1.3185 -1.17578 0.151397 11.6273 -90.7835 3.61665 -0.0107901 -1.53406 -8.05522 -0.0782812 -1.5321 -30.5836 0.450709 -1.46641 -10.5709 0.450712 -1.46641 99.458 -34.9166 -87.3347 16.8543 -7.05398 -59.5353 11.3699 8.71198 -28.316 -6.82607 0.158113 -8.51327 -85.317 -37.2156 83.5506 -25.2964 9.85121 -59.9144 -8.34202 -8.93553 -20.1008 -4.14245 0.0590998 -14.0465 11.18 -2.22995 17.8268 12.3354 -8.40057 -14.2275 
-7.80312 90.1367 -4.70657 35.5356 -80.1962 36.8288 -178.212 35.5762 89.9945 -46.441 6.68635 1.91755 70.3486 10.561 2.9563 40.1314 -1.02392 3.40121 170.694 35.5662 86.53 -45.0028 -12.2562 4.09636 69.9807 -9.45793 -3.86963 37.8513 -1.38895 -1.40229 0.0899313 11.0315 -90.6014 4.80926 -0.0668999 -1.18025 -6.8622 -0.118781 -1.17618 -29.3933 0.290883 -1.14581 -9.38064 0.29088 -1.14582 100.571 -38.9036 -85.0446 17.0803 -9.02789 -54.1082 10.4909 5.95092 -31.7599 -2.39681 0.0378606 -9.96806 -84.5107 -38.7262 85.2146 -26.1104 11.7372 -54.0414 -11.0217 -8.58608 -24.2611 -2.90883 -0.0445099 -14.2765 13.5415 -1.54768 17.71 8.42227 -7.54409 -14.0639 
-7.64443 91.4778 -3.55086 42.8473 -82.3225 44.1025 -178.228 30.2248 90.0479 -42.4576 5.90118 2.37008 69.8147 9.91671 2.30094 39.4902 -0.988752 3.47871 171.845 30.4278 86.383 -41.3175 -10.8004 3.26428 69.3356 -8.54017 -2.19043 36.9196 -1.21834 -1.94457 0.107609 10.6255 -90.5268 5.62161 -0.00480991 -1.03458 -6.04975 -0.050332 -1.03338 -28.5818 0.306328 -0.988212 -8.56916 0.306332 -0.988219 101.788 -41.0293 -82.821 18.3735 -11.9607 -48.533 11.6282 6.55937 -35.9407 -2.81671 0.0491788 -9.41093 -83.9355 -39.645 86.3426 -26.1466 13.0902 -48.6094 -13.109 -7.394 -27.9591 -1.53253 -0.158745 -13.8123 13.8892 -1.48467 15.6403 7.46307 -6.64805 -11.7497 
-7.56189 92.6321 -2.29609 54.9121 -84.252 56.3009 -178.154 25.0454 90.226 -38.7406 4.72653 2.88906 69.4848 9.24808 1.07174 38.913 -0.962476 3.65789 172.567 25.1136 86.5624 -37.3593 -9.5509 2.59718 69.0425 -7.96847 -0.799859 35.7497 -0.993472 -2.58308 0.123221 10.2543 -90.4818 6.36455 0.0421169 -0.949592 -5.30675 0.000286325 -0.950529 -27.8394 0.325543 -0.893057 -7.82672 0.325543 -0.893047 102.684 -43.1218 -81.2772 18.5381 -13.8944 -43.352 11.3107 5.41436 -39.4659 -3.35884 0.0902288 -10.0123 -83.3451 -40.6359 87.4799 -26.2857 13.9236 -43.9213 -14.0125 -5.72572 -30.781 -2.53324 -0.07741 -13.6907 16.5341 -1.10478 13.7995 3.38895 -5.55606 -9.61354 
-7.66066 93.536 -1.10603 60.7067 -84.9152 61.7762 -177.992 21.4767 90.084 -34.9936 4.54777 3.05435 68.7023 8.76453 0.879803 38.7015 -0.936517 3.1239 173.404 21.9531 86.5411 -34.4352 -7.79992 1.77382 68.7416 -7.20794 0.929516 35.3277 -0.925698 -2.39717 0.0503614 9.73076 -90.3921 7.41144 -0.0690798 -0.769956 -4.25972 -0.10289 -0.766165 -26.7931 0.165511 -0.75512 -6.78046 0.165508 -0.755128 103.628 -44.5111 -79.714 18.4567 -15.913 -38.8224 10.3427 3.95765 -42.881 -1.65624 0.0147515 -9.78588 -82.3731 -41.4941 89.2167 -25.9975 15.1143 -39.6818 -15.6739 -5.68412 -33.5289 -1.59546 -0.15606 -14.0364 19.3688 -0.515989 12.1753 -2.1734 -4.3604 -8.11348 
-7.50803 94.2572 -0.122257 72.4927 -85.7931 73.7084 -178.14 18.016 90.0579 -32.0153 3.88671 3.55436 68.0391 8.35006 0.721188 38.5453 -0.927622 3.13819 173.81 18.6405 86.689 -31.6434 -7.74667 1.30479 67.9384 -6.489 1.69263 35.1493 -0.864677 -3.09967 -0.0122845 9.23761 -90.3562 8.39752 -0.181559 -0.6927 -3.2736 -0.21187 -0.684052 -25.8073 0.0350155 -0.715246 -5.79462 0.0350141 -0.715249 104.297 -46.0348 -78.6642 17.4287 -18.3749 -34.4895 11.315 4.55346 -46.5537 -1.92623 0.0222598 -9.35304 -81.1144 -42.8656 91.4362 -25.3216 16.2581 -35.3388 -17.8356 -6.08015 -36.9533 -1.62782 -0.152657 -13.9247 17.2379 -0.477583 9.85152 -3.36155 -3.30919 -5.82281 
-7.58184 94.8314 0.813594 85.2367 -86.6467 86.3973 -177.896 14.9645 90.1055 -29.3443 3.67669 3.73877 67.687 8.03955 0.349145 38.0447 -0.931007 4.03247 174.298 15.7009 86.9308 -28.9308 -7.51546 0.745829 67.3513 -6.09599 1.88123 35.011 -0.856234 -2.70461 0.0117223 8.75481 -90.3114 9.36358 -0.116487 -0.608615 -2.30752 -0.14315 -0.602903 -24.8415 0.0718048 -0.615494 -4.82888 0.0718113 -0.615489 105.324 -47.5996 -77.0869 15.961 -20.817 -30.319 11.5389 4.60495 -50.6684 -2.00681 0.0194871 -8.96766 -80.3988 -43.579 92.6609 -25.5976 17.132 -31.2652 -19.1375 -6.36034 -39.983 -2.20879 -0.103071 -13.2035 14.1056 -0.779044 9.28477 -4.557 -3.14113 -6.66664 
-7.5426 95.4864 1.83827 102.616 -87.3351 103.577 -177.603 11.5721 89.885 -25.7811 3.78051 3.89885 66.4794 7.30552 1.05383 38.2297 -0.910331 3.166 174.484 12.5446 86.89 -25.539 -8.14661 0.293276 66.5714 -5.81391 1.58074 34.5943 -0.774664 -2.84961 0.0378801 8.28512 -90.249 10.3033 -0.0383905 -0.491292 -1.36776 -0.0599711 -0.489132 -23.9022 0.111039 -0.480111 -3.88954 0.111043 -0.480126 106.239 -49.3478 -75.7604 15.1198 -22.7807 -26.1429 11.6786 4.79035 -54.5249 -2.01617 0.0235512 -9.27889 -79.4594 -44.2485 94.2271 -26.4077 17.854 -27.4782 -20.1106 -6.51985 -42.3677 -2.70072 -0.0682348 -12.137 11.7666 -0.767594 7.55377 -7.16455 -2.39258 -5.96701 
-7.60803 96.1171 2.74855 123.073 -87.5741 123.803 -176.834 7.97768 89.9904 -21.3925 4.0708 3.67601 65.7078 6.65734 0.421386 36.6846 -0.819254 3.08589 174.729 9.46027 86.8131 -21.8515 -7.80698 -0.208543 65.5073 -4.88032 2.6668 34.0524 -0.697895 -2.4299 0.0815498 7.89539 -90.2094 11.083 0.0652669 -0.42303 -0.587979 0.0465947 -0.425491 -23.1227 0.189383 -0.383853 -3.11002 0.189393 -0.383842 107.415 -51.1041 -74.0934 14.6729 -24.2426 -22.025 10.7736 4.43364 -58.5761 -2.33882 0.0205398 -8.47092 -78.5638 -45.3852 95.7053 -27.2339 17.9231 -24.1733 -20.544 -6.57141 -44.3935 -2.68249 -0.0670418 -12.8743 9.91535 -0.928296 5.82831 -9.65414 -1.95694 -5.04995 
